# xmcd
#
# Track frame offsets:
#	150
#	17411
#	39326
#	54830
#	72570
#	93613
#	111370
#	125804
#	144796
#	163921
#	183620
#	198864
#	215535
#	234302
#	251489
#	268040
#	285668
#	302811
#	329662
#
# Disc length: 4401 seconds
#
# Revision: 0
# Processed by: cddbd v1.5.1PL0 Copyright (c) Steve Scherf et al.
# Submitted via: audiograbber 1.82.02
#
DISCID=1c112f13
DTITLE=Various Artist - TU205
DYEAR=2003
DGENRE=Karaoke - Country
TTITLE0=Walker, Clay - A Few Questions
TTITLE1=Morgan, Craig - Almost Home
TTITLE2=Keith, Toby and Willie Nelson - Beer For My Horses
TTITLE3=Jackson, Alan and Jimmy Buffett - It's Five O'Clock Somewhere
TTITLE4=Dixie Chicks - Godspeed (Sweet Dreams)
TTITLE5=Jewel, Buddy - Help Pour Out The Rain
TTITLE6=Rogers, Kenny - I'm Missing You
TTITLE7=Turner, Josh - Long Black Train
TTITLE8=McGraw, Tim - Real Good Man
TTITLE9=Brooks and Dunn - Red Dirt Road
TTITLE10=Nichols, Joe - She Only Smokes When She Drinks
TTITLE11=Hanson, Jennifer - This Far Gone
TTITLE12=Green, Pat - Wave On Wave
TTITLE13=Cagle, Chris - What A Beautiful Day
TTITLE14=Wynonna - What The World Needs
TTITLE15=Bentley, Dierks - What Was I Thinking
TTITLE16=Urban, Keith - Who Wouldn't Want To Be Me
TTITLE17=Hill, Faith - Your're Still Here
TTITLE18=Data - Data
EXTD=
EXTT0=
EXTT1=
EXTT2=
EXTT3=
EXTT4=
EXTT5=
EXTT6=
EXTT7=
EXTT8=
EXTT9=
EXTT10=
EXTT11=
EXTT12=
EXTT13=
EXTT14=
EXTT15=
EXTT16=
EXTT17=
EXTT18=
PLAYORDER=
